<svg width="21" height="20" viewBox="0 0 21 20" fill="none" xmlns="http://www.w3.org/2000/svg">
<path d="M8.12467 18.3125C8.5619 18.3125 8.91634 17.958 8.91634 17.5208C8.91634 17.0836 8.5619 16.7291 8.12467 16.7291C7.68745 16.7291 7.33301 17.0836 7.33301 17.5208C7.33301 17.958 7.68745 18.3125 8.12467 18.3125Z" stroke="white" stroke-width="2" stroke-linecap="round" stroke-linejoin="round"/>
<path d="M16.8332 18.3125C17.2704 18.3125 17.6248 17.958 17.6248 17.5208C17.6248 17.0836 17.2704 16.7291 16.8332 16.7291C16.3959 16.7291 16.0415 17.0836 16.0415 17.5208C16.0415 17.958 16.3959 18.3125 16.8332 18.3125Z" stroke="white" stroke-width="2" stroke-linecap="round" stroke-linejoin="round"/>
<path d="M1.7915 1.6875H4.95817L7.07984 12.2879C7.15223 12.6524 7.35051 12.9798 7.63998 13.2128C7.92944 13.4458 8.29164 13.5696 8.66317 13.5625H16.3582C16.7297 13.5696 17.0919 13.4458 17.3814 13.2128C17.6708 12.9798 17.8691 12.6524 17.9415 12.2879L19.2082 5.64583H5.74984" stroke="white" stroke-width="2" stroke-linecap="round" stroke-linejoin="round"/>
</svg>
